{"title":"The Hangover Part II 2011 TS XViD-EP1C","uid":6431463,"size":1485946140,"categoryP":"video","categoryS":"movies","magnet":"?xt=urn:btih:86568beb8722eeb9c2dd3f00db875cc31f392eb0&amp;dn=The+Hangover+Part+II+2011+TS+XViD-EP1C&amp;tr=udp%3A%2F%2Ftracker.openbittorrent.com%3A80&amp;tr=udp%3A%2F%2Fopen.demonii.com%3A1337&amp;tr=udp%3A%2F%2Ftracker.coppersurfer.tk%3A6969&amp;tr=udp%3A%2F%2Fexodus.desync.com%3A6969","seeders":0,"leechers":1,"uploader":"manvan1","files":3,"time":1306666505,"description":"[img]http://noob.hu/2011/05/28/the-hangover-2-poster-500x286.jpg[img]                                        \n \n\n                  ::::::::::::  EP1C Presents  ::::::::::::\n\n::File:: The.Hangover.Part.II.2011.TS.XViD-EP1C\n\n::Video Source:: CiNEDUB\n::Audio Source:: Own\n::Language:::::: English\n::IMDB:::::::::: http://www.imdb.com/title/tt1411697/\n\nRight after the bachelor party in Las Vegas, Phil, Stu, Alan, and Doug \njet to Thailand for Stu's wedding. Stu's plan for a subdued pre-wedding \nbrunch, however, goes seriously awry.\n\n::Specs:::::::::\n\nFormat                           : AVI\nFormat/Info                      : Audio Video Interleave\nFile size                        : 1.37 GiB\nDuration                         : 1h 35mn\nOverall bit rate                 : 2 060 Kbps\nWriting application              : VirtualDubMod 1.5.10.2 (build 2540/release)\nWriting library                  : VirtualDubMod build 2540/release\n\nVideo\nID                               : 0\nFormat                           : MPEG-4 Visual\nFormat profile                   : Advanced Simple@L5\nFormat settings, BVOP            : Yes\nFormat settings, QPel            : No\nFormat settings, GMC             : No warppoints\nFormat settings, Matrix          : Default (MPEG)\nMuxing mode                      : Packed bitstream\nCodec ID                         : XVID\nCodec ID/Hint                    : XviD\nDuration                         : 1h 35mn\nBit rate                         : 1 922 Kbps\nWidth                            : 688 pixels\nHeight                           : 336 pixels\nDisplay aspect ratio             : 2.048\nFrame rate                       : 25.000 fps\nColor space                      : YUV\nChroma subsampling               : 4:2:0\nBit depth                        : 8 bits\nScan type                        : Progressive\nBits/(Pixel*Frame)               : 0.333\nStream size                      : 1.28 GiB (93%)\nWriting library                  : XviD 58\n\nAudio\nID                               : 1\nFormat                           : MPEG Audio\nFormat version                   : Version 1\nFormat profile                   : Layer 3\nCodec ID                         : 55\nCodec ID/Hint                    : MP3\nDuration                         : 1h 35mn\nBit rate mode                    : Constant\nBit rate                         : 128 Kbps\nChannel(s)                       : 2 channels\nSampling rate                    : 44.1 KHz\nStream size                      : 87.2 MiB (6%)\nAlignment                        : Split accross interleaves\nInterleave, duration             : 40 ms (1.00 video frame)\nInterleave, preload duration     : 500 ms\n\n::NOTES::::::::: \nPresenting the first TS of Hangover Part II. \nEnjoy. //EP1C\n\n:: Got something we might be interested in? contact us: &lt;a class=&quot;__cf_email__&quot; href=&quot;/cdn-cgi/l/email-protection&quot; data-cfemail=&quot;7b1e0b12183b130e0813161a121755161e&quot;&gt;[email&amp;#160;protected]&lt;/a&gt;&lt;script cf-hash='f9e31' type=&quot;text/javascript&quot;&gt;\n/* &lt;![CDATA[ */!function(){try{var t=&quot;currentScript&quot;in document?document.currentScript:function(){for(var t=document.getElementsByTagName(&quot;script&quot;),e=t.length;e--;)if(t[e].getAttribute(&quot;cf-hash&quot;))return t[e]}();if(t&amp;&amp;t.previousSibling){var e,r,n,i,c=t.previousSibling,a=c.getAttribute(&quot;data-cfemail&quot;);if(a){for(e=&quot;&quot;,r=parseInt(a.substr(0,2),16),n=2;a.length-n;n+=2)i=parseInt(a.substr(n,2),16)^r,e+=String.fromCharCode(i);e=document.createTextNode(e),c.parentNode.replaceChild(e,c)}}}catch(u){}}();/* ]]&gt; */&lt;/script&gt; ::\n\n::::::::::::::::::::::::::::::::  RESPECT  :::::::::::::::::::::::::::::::::\nIMAGiNE, Rx, FLAWL3SS, ViSiON, T0XiC, HiVE, bobwhite &amp; All Our Friends!\n\n                 ::::::::::::::::  We Are  ::::::::::::::::  \n               :::::: Surpassing the usual or ordinary ::::::\n::::::::::::::::::    Heroic and impressive in quality    ::::::::::::::::::     \n ::::::::::::::::::::::::::::::::   EP1C   ::::::::::::::::::::::::::::::::\n\n[img]http://noob.hu/2011/05/28/vlcsnap-2011-05-28-11h03m33s48.png[/img]\n[img]http://noob.hu/2011/05/28/vlcsnap-2011-05-28-11h02m46s68.png[/img]\n[img]http://noob.hu/2011/05/28/vlcsnap-2011-05-28-11h03m17s153.png[/img]\n[img]http://noob.hu/2011/05/28/vlcsnap-2011-05-28-11h01m22s252.png[/img]\n[img]http://noob.hu/2011/05/28/vlcsnap-2011-05-28-11h02m11s239.png[/img]\n\n","torrent":{"xt":"urn:btih:86568beb8722eeb9c2dd3f00db875cc31f392eb0","amp;dn":"The+Hangover+Part+II+2011+TS+XViD-EP1C","amp;tr":["udp%3A%2F%2Ftracker.openbittorrent.com%3A80","udp%3A%2F%2Fopen.demonii.com%3A1337","udp%3A%2F%2Ftracker.coppersurfer.tk%3A6969","udp%3A%2F%2Fexodus.desync.com%3A6969"],"infoHash":"86568beb8722eeb9c2dd3f00db875cc31f392eb0","infoHashBuffer":{"type":"Buffer","data":[134,86,139,235,135,34,238,185,194,221,63,0,219,135,92,195,31,57,46,176]},"announce":[],"urlList":[]}}